<?xml version="1.0" standalone="no"?>
<!DOCTYPE svg PUBLIC "-//W3C//DTD SVG 20010904//EN"
 "http://www.w3.org/TR/2001/REC-SVG-20010904/DTD/svg10.dtd">
<svg version="1.0" xmlns="http://www.w3.org/2000/svg"
 width="1501.000000pt" height="1501.000000pt" viewBox="0 0 1501.000000 1501.000000"
 preserveAspectRatio="xMidYMid meet">
<metadata>
Created by potrace 1.11, written by Peter Selinger 2001-2013
</metadata>
<g transform="translate(0.000000,1501.000000) scale(0.100000,-0.100000)"
fill="#000000" stroke="none">
<path d="M6415 12582 c-65 -11 -151 -62 -198 -115 -15 -18 -40 -57 -55 -87
-23 -48 -27 -69 -31 -167 l-3 -113 -1537 -1 c-845 0 -1549 -2 -1566 -4 -110
-10 -240 -31 -253 -39 -5 -3 -23 -8 -41 -11 -65 -11 -216 -67 -325 -119 -432
-209 -756 -587 -904 -1056 -26 -83 -36 -124 -57 -250 -21 -117 -28 -539 -11
-541 6 -1 2742 -2 6080 -3 l6068 -1 -5 240 c-7 258 -9 285 -37 415 -86 391
-310 750 -620 992 -41 32 -80 63 -87 68 -26 21 -153 95 -223 130 -96 48 -277
115 -355 131 -33 7 -64 14 -70 15 -5 1 -26 5 -45 9 -19 3 -48 9 -65 13 -16 3
-658 7 -1425 9 -767 2 -1480 4 -1584 6 l-190 2 -2 100 c-3 172 -67 281 -202
347 l-67 33 -1085 1 c-597 0 -1094 -2 -1105 -4z"/>
<path d="M666 9853 c-218 -50 -369 -247 -361 -473 7 -201 125 -363 315 -430
74 -26 133 -29 550 -30 l255 0 1 -2407 c0 -2207 3 -2540 18 -2613 3 -13 8 -42
12 -65 3 -22 7 -44 8 -50 46 -191 140 -417 236 -565 245 -377 626 -648 1057
-751 208 -50 -40 -48 4778 -46 2481 1 4522 6 4537 10 16 4 40 9 55 11 201 28
461 129 650 251 418 272 702 702 779 1180 2 11 6 36 11 55 4 19 9 1148 10
2509 2 1361 5 2476 7 2478 2 2 151 4 332 4 276 1 383 6 459 22 42 9 136 69
184 116 114 112 161 254 137 414 -26 179 -170 333 -357 380 -78 20 -13586 20
-13673 0z"/>
</g>
</svg>
